<svg width="1280" height="720" xmlns="http://www.w3.org/2000/svg" xmlns:xlink="http://www.w3.org/1999/xlink" overflow="hidden"><g><rect x="0" y="0" width="1280" height="720" fill="#FFFFFF"/><path d="M15 20.4995C15 14.7008 19.7007 10 25.4994 10L1258.5 10C1264.3 10 1269 14.7008 1269 20.4995L1269 62.5005C1269 68.2992 1264.3 73 1258.5 73L25.4994 73C19.7007 73 15 68.2992 15 62.5005Z" fill="#F0F2F7" fill-rule="evenodd"/><text fill="#FF0000" font-family="Open Sans,Open Sans_MSFontService,sans-serif" font-weight="400" font-size="24" transform="translate(32.9612 50)">T</text><text fill="#FF0000" font-family="Open Sans,Open Sans_MSFontService,sans-serif" font-weight="400" font-size="24" transform="translate(44.3745 50)">ableau de bord: Résultats d’analyse des données d’</text><text fill="#FF0000" font-family="Open Sans,Open Sans_MSFontService,sans-serif" font-weight="400" font-size="24" transform="translate(616.768 50)">Enquetes</text><text fill="#FF0000" font-family="Open Sans,Open Sans_MSFontService,sans-serif" font-weight="400" font-size="24" transform="translate(727.268 50)">Menages</text><text fill="#FF0000" font-family="Open Sans,Open Sans_MSFontService,sans-serif" font-style="italic" font-weight="400" font-size="11" transform="translate(1204.77 50)">8.10.2024</text><path d="M38 112.334C38 107.179 42.1788 103 47.3335 103L93.6665 103C98.8212 103 103 107.179 103 112.334L103 149.666C103 154.821 98.8212 159 93.6665 159L47.3335 159C42.1788 159 38 154.821 38 149.666Z" fill="#FFFFFF" fill-rule="evenodd"/><path d="M305 112.334C305 107.179 309.179 103 314.334 103L360.666 103C365.821 103 370 107.179 370 112.334L370 149.666C370 154.821 365.821 159 360.666 159L314.334 159C309.179 159 305 154.821 305 149.666Z" fill="#FFFFFF" fill-rule="evenodd"/><path d="M14 103.719C14 94.4852 21.4852 87 30.7186 87L1251.28 87C1260.51 87 1268 94.4852 1268 103.719L1268 278.281C1268 287.515 1260.51 295 1251.28 295L30.7186 295C21.4852 295 14 287.515 14 278.281Z" fill="#F0F2F7" fill-rule="evenodd"/><path d="M18 90.6422C18 89.7353 18.7352 89 19.6422 89L636.358 89C637.265 89 638 89.7353 638 90.6422L638 108.358C638 109.265 637.265 110 636.358 110L19.6422 110C18.7352 110 18 109.265 18 108.358Z" fill="#D0CECE" fill-rule="evenodd"/><text fill="#FF0000" font-family="Open Sans,Open Sans_MSFontService,sans-serif" font-weight="700" font-size="12" transform="translate(148.098 103)">C</text><text fill="#FF0000" font-family="Open Sans,Open Sans_MSFontService,sans-serif" font-weight="700" font-size="12" transform="translate(155.765 103)">aractéristiques socio démographie des ménages enquêtés.</text><path d="M15 203.703C15 195.583 21.5826 189 29.7026 189L620.297 189C628.417 189 635 195.583 635 203.703L635 695.297C635 703.417 628.417 710 620.297 710L29.7026 710C21.5826 710 15 703.417 15 695.297Z" fill="#F0F2F7" fill-rule="evenodd"/><path d="M645 305.642C645 304.735 645.735 304 646.642 304L1263.36 304C1264.26 304 1265 304.735 1265 305.642L1265 323.358C1265 324.265 1264.26 325 1263.36 325L646.642 325C645.735 325 645 324.265 645 323.358Z" fill="#D0CECE" fill-rule="evenodd"/><text fill="#FF0000" font-family="Open Sans,Open Sans_MSFontService,sans-serif" font-weight="700" font-size="12" transform="translate(845.088 318)">Satisfaction ou Non à L’intervention</text><text fill="#FF0000" font-family="Open Sans,Open Sans_MSFontService,sans-serif" font-weight="700" font-size="12" transform="translate(1061.09 318)">.</text><path d="M645 508.72C645 507.77 645.77 507 646.72 507L1263.28 507C1264.23 507 1265 507.77 1265 508.72L1265 527.28C1265 528.23 1264.23 529 1263.28 529L646.72 529C645.77 529 645 528.23 645 527.28Z" fill="#D0CECE" fill-rule="evenodd"/><text fill="#FF0000" font-family="Open Sans,Open Sans_MSFontService,sans-serif" font-weight="700" font-size="12" transform="translate(834.338 522)">Utilisation</text><text fill="#FF0000" font-family="Open Sans,Open Sans_MSFontService,sans-serif" font-weight="700" font-size="12" transform="translate(900.004 522)">des</text><text fill="#FF0000" font-family="Open Sans,Open Sans_MSFontService,sans-serif" font-weight="700" font-size="12" transform="translate(924.004 522)">Mécanismes du feedback</text><path d="M381 121.469C381 121.21 381.21 121 381.469 121L386.531 121C386.79 121 387 121.21 387 121.469L387 281.531C387 281.79 386.79 282 386.531 282L381.469 282C381.21 282 381 281.79 381 281.531Z" fill="#D0CECE" fill-rule="evenodd"/><path d="M820 118.469C820 118.21 820.21 118 820.469 118L825.531 118C825.79 118 826 118.21 826 118.469L826 279.531C826 279.79 825.79 280 825.531 280L820.469 280C820.21 280 820 279.79 820 279.531Z" fill="#D0CECE" fill-rule="evenodd"/><path d="M7 470.547C7 470.245 7.24507 470 7.54738 470L627.453 470C627.755 470 628 470.245 628 470.547L628 476.453C628 476.755 627.755 477 627.453 477L7.54738 477C7.24507 477 7 476.755 7 476.453Z" fill="#D0CECE" fill-rule="evenodd"/></g></svg>